<?xml version="1.0" encoding="UTF-8"?>
<!DOCTYPE svg PUBLIC "-//W3C//DTD SVG 1.1//EN" "http://www.w3.org/Graphics/SVG/1.1/DTD/svg11.dtd">
<!-- Creator: CorelDRAW 2019 (64-Bit) -->
<svg xmlns="http://www.w3.org/2000/svg" xml:space="preserve" width="0.0855669in" height="0.0785984in" version="1.1" style="shape-rendering:geometricPrecision; text-rendering:geometricPrecision; image-rendering:optimizeQuality; fill-rule:evenodd; clip-rule:evenodd"
viewBox="0 0 85.57 78.6"
 xmlns:xlink="http://www.w3.org/1999/xlink">
 <defs>
  <style type="text/css">
   <![CDATA[
    .fil0 {fill:#2B2A29}
   ]]>
  </style>
 </defs>
 <g id="Layer_x0020_1">
  <metadata id="CorelCorpID_0Corel-Layer"/>
  <path class="fil0" d="M14.08 45.64l8.06 0 2.66 -5.7 -10.72 0 0 5.7zm3.15 24.02c-7.1,-6.76 -11.53,-16.3 -11.53,-26.88 0,-20.48 16.6,-37.08 37.08,-37.08 15.37,0 28.56,9.35 34.18,22.67l6.12 0c-5.92,-16.54 -21.72,-28.38 -40.3,-28.38 -23.63,0 -42.78,19.16 -42.78,42.78 0,14.99 7.7,28.17 19.37,35.81l23.42 -50.22 2.73 5.85 6.3 0 -9.02 -19.35 -25.55 54.78zm26.45 -29.73l-2.66 5.7 38.73 0c-0.72,9.43 -4.96,17.88 -11.43,24.02l-8.54 -18.32 -6.3 0 12.71 27.26c11.67,-7.64 19.37,-20.83 19.37,-35.81l0 -2.85 -41.88 0z"/>
 </g>
</svg>
